<svg xmlns="http://www.w3.org/2000/svg" version="1.1" xmlns:xlink="http://www.w3.org/1999/xlink" xmlns:svgjs="http://svgjs.dev/svgjs" width="1000" height="1125" viewBox="0 0 1000 1125"><g transform="matrix(1,0,0,1,1.7053025658242404e-13,0)"><svg viewBox="0 0 320 360" data-background-color="#4e4e4e" preserveAspectRatio="xMidYMid meet" height="1125" width="1000" xmlns="http://www.w3.org/2000/svg" xmlns:xlink="http://www.w3.org/1999/xlink"><g id="tight-bounds" transform="matrix(1,0,0,1,0,0)"><svg viewBox="0 0 320 360" height="360" width="320"><g><svg></svg></g><g><svg viewBox="0 0 320 360" height="360" width="320"><g><path xmlns="http://www.w3.org/2000/svg" d="M20.961 227.22l3.726 4.658-1.863-6.056c-0.466-2.795-3.726 0.466-1.863 1.398M25.153 224.425c1.397 2.329 2.795 4.658 2.795 6.987 0 3.261 2.795 4.658 5.123 5.589-3.261-3.726-5.124-13.974-7.918-12.576M204.017 26.929c7.918 0 15.371-0.932 23.756 0.931 20.495 5.124 37.729 15.371 49.374 29.811l32.606 52.169c1.397 13.042 4.192 27.482 3.726 43.319 3.261 0 2.795-4.658 6.521-5.59-3.726 9.316-5.59 20.961-6.521 34.469-2.329-7.453 0-18.632 0.466-24.687-3.261 5.124-5.124 1.397-5.124-0.932 0.466-3.726-1.397-3.261-2.795-4.658-5.124-4.658-8.384-9.782-12.11-17.7 2.329-6.055 2.795-14.905-4.658-19.563-2.329-1.397-5.124-3.726-6.521-7.453-1.863-5.124-5.124-11.179-4.193-19.097 0.466-2.329-6.987 5.124-11.179 1.863-18.166-12.576-36.332-27.016-58.224-39.127-11.645 0-20.029-4.192-24.221-9.316-3.726-4.658-0.932-10.713 4.658-11.179 3.261 0 6.987-0.932 9.782 0.932 0.466-1.863 2.329-4.192 4.657-4.192M157.904 16.215l0.932 0.466c4.658 0.932 6.987 7.453 12.11 5.124 0 3.261 0.466 6.521-0.466 8.85-1.397 3.726-5.59 3.726-8.85 3.726-31.208-1.863-49.374 11.179-68.471 22.358-5.124 3.261-10.713 5.59-14.906 9.782-20.029 18.632-41.921 35.866-47.045 70.335l-4.192 38.195c-0.466 4.192-5.124 8.384-4.192 13.508l3.26 22.824c-3.261-3.261-5.124 0.932-4.192 2.795 0.466 1.397 2.329 6.055 5.124 1.863 3.726 6.987 7.453 20.495 12.576 26.55 15.837 18.632 36.332 35.4 53.101 52.169 4.192-0.932 7.453-0.932 8.384-3.727 1.397 2.795-1.397 5.59-3.726 6.056 7.453 4.658 15.837 8.85 27.016 9.781 14.44 0.932 27.948 3.261 40.524 6.522 6.521-1.863 13.042-2.795 20.029-3.261 2.329 0 3.726-3.726 6.521-4.658l0.466-4.658c2.795 4.192 2.329-1.397 0.466-4.192 3.261 2.795 4.192 5.124 5.589 6.987 0-1.397 3.726-6.521 3.727-0.466l0.931-6.055c1.397-0.932 1.863 5.124 3.261 0.931 1.397-4.192 4.192-0.932 6.987-2.329-0.932 1.863-0.466 5.59 2.794 3.261l3.727-3.261c2.329 5.59 6.055 3.261 7.918 2.329 20.495-13.042 40.99-28.413 60.553-43.784l-0.466 6.055 2.329-7.453c2.329 2.329 4.192 0.466 5.124-0.931 2.795-4.658 6.521-9.316 12.577-13.508-7.453 20.029-16.303 35.866-27.482 48.908l-4.658 5.59c0 3.261-0.932 7.453-4.658 7.918-1.863 0.466-5.59-0.932-8.384 1.863-1.397 1.863 3.261 5.59-0.466 2.795-3.261-2.329-6.521 0-10.248 0.932-2.795 0.932 1.863 3.726 2.795 5.589 0.932 1.863 1.863 3.726 1.398 6.056l-5.124-5.59c-6.055 3.261-9.782 9.316-14.906 13.974-2.329 1.863-1.397 5.124-1.397 7.918-3.261 0-6.987-0.932-8.85 0.932-1.397 1.863-0.932 4.658-0.932 7.453-4.658-0.466-5.124-7.453-9.315-6.056-4.192 0.932-8.85 1.397-12.577 3.727 2.795 5.59-4.658 2.329-3.726 3.26-6.987-4.192-13.042-7.453-20.495-4.658-15.837-5.124-35.4-2.795-49.84-0.931 0-2.329 0.466-4.658-0.466-5.124-0.932 2.329-3.726 1.397-3.26 1.397-8.85-6.055-17.7-9.782-27.016-14.905-8.384 0.932-16.303-3.261-18.632-5.59-6.521-6.055-13.974-2.795-20.029-4.192-13.042-3.261-17.7-16.769-19.098-26.084-0.932-4.658-4.658-6.521-6.055-6.056-6.055-19.563-15.371-37.263-22.824-55.429-1.863-4.658-1.397-9.316-1.397-14.44 2.329 0.932 4.658 0.466 4.192-2.794-2.329-15.371-7.918-27.016-13.974-38.195 3.261-15.837 3.726-34.469 11.179-48.443 6.521-12.576 18.632-19.098 27.016-29.811 2.795-3.726 2.795-8.85 5.59-12.11 9.316-9.316 18.632-19.098 28.879-27.482 4.658-3.726 10.247 0 17.234-1.397 2.329-8.384 11.645-15.837 20.495-13.508 3.726 0.932 11.179-8.85 13.508-9.782 3.726-1.397 1.863 3.726 1.863 6.987 8.85-6.987 20.961-10.713 32.14-14.906" fill="#ed5714" fill-rule="nonzero" stroke="none" stroke-width="1" stroke-linecap="butt" stroke-linejoin="miter" stroke-miterlimit="10" stroke-dasharray="" stroke-dashoffset="0" font-family="none" font-weight="none" font-size="none" text-anchor="none" style="mix-blend-mode: normal" data-fill-palette-color="tertiary"></path></g><g transform="matrix(1,0,0,1,64,169.75542857142858)"><svg viewBox="0 0 192 20.48914285714286" height="20.48914285714286" width="192"><g><svg viewBox="0 0 192 20.48914285714286" height="20.48914285714286" width="192"><g><svg viewBox="0 0 192 20.48914285714286" height="20.48914285714286" width="192"><g><svg viewBox="0 0 192 20.48914285714286" height="20.48914285714286" width="192"><g><svg viewBox="0 0 192 20.48914285714286" height="20.48914285714286" width="192"><g><svg viewBox="0 0 192 20.48914285714286" height="20.48914285714286" width="192"><g transform="matrix(1,0,0,1,0,0)"><svg width="192" viewBox="1.149999976158142 -36.95000076293945 349.9700012207031 37.35000228881836" height="20.48914285714286" data-palette-color="#161616"><path d="M13.45-14.3L13.1-13.1 21.2-13.1 20.85-14.3Q19.4-19.2 18.48-22.65 17.55-26.1 17.35-27.1L17.35-27.1 17.15-28.1Q16.75-25.35 13.45-14.3L13.45-14.3ZM33.35 0L25.1 0 23.05-6.9 11.25-6.9 9.2 0 1.15 0 12.4-33.7 22.1-33.7 33.35 0ZM43.35-15L52.15-15 52.15-15.6Q51.8-20.05 48.25-20.05L48.25-20.05Q46.5-20.05 45.15-18.78 43.8-17.5 43.35-15L43.35-15ZM57.4-7.55L57.4-7.55 57.4-1.45Q54.8 0.25 49.45 0.25L49.45 0.25Q43.2 0.25 39.72-3.38 36.25-7 36.25-12.7L36.25-12.7Q36.25-18.75 39.62-22.18 43-25.6 47.95-25.6L47.95-25.6Q53.05-25.6 56-22.63 58.95-19.65 58.95-13.75L58.95-13.75Q58.95-12.6 58.55-9.8L58.55-9.8 43.65-9.8Q44.4-7.7 46.25-6.55 48.1-5.4 50.7-5.4L50.7-5.4Q54.55-5.4 57.4-7.55ZM80.15-24.6L80.15-24.6 80.15-18.35Q77.5-19.9 73.95-19.9L73.95-19.9Q72.65-19.9 71.95-19.38 71.25-18.85 71.25-18.05L71.25-18.05Q71.25-17.6 71.5-17.2 71.75-16.8 72.32-16.45 72.9-16.1 73.42-15.83 73.95-15.55 74.87-15.15 75.8-14.75 76.35-14.45L76.35-14.45Q78.65-13.25 80.05-11.68 81.45-10.1 81.45-7.65L81.45-7.65Q81.45-3.9 78.75-1.85 76.05 0.2 71.6 0.2L71.6 0.2Q67 0.2 63.9-1.35L63.9-1.35 63.9-7.85Q67.35-5.45 71.2-5.45L71.2-5.45Q73.95-5.45 73.95-7.2L73.95-7.2Q73.95-7.65 73.7-8.05 73.45-8.45 72.85-8.8 72.25-9.15 71.75-9.38 71.25-9.6 70.3-10 69.35-10.4 68.85-10.65L68.85-10.65Q63.8-13.05 63.8-17.85L63.8-17.85Q63.8-21.55 66.62-23.6 69.45-25.65 73.65-25.65L73.65-25.65Q77.55-25.65 80.15-24.6ZM100.29-20L94.39-20 94.39-8.35Q94.39-7 95.17-6.3 95.94-5.6 97.19-5.6L97.19-5.6Q99.19-5.6 100.74-6.6L100.74-6.6 100.74-0.55Q98.89 0.25 95.74 0.25L95.74 0.25Q87.09 0.25 87.09-8.4L87.09-8.4 87.09-20 83.44-20 83.44-25.35 87.09-25.35 87.09-31.35 94.39-31.35 94.39-25.35 100.29-25.35 100.29-20ZM105.24-35.35L112.54-35.35 112.54-21.05Q114.49-25.6 120.14-25.6L120.14-25.6Q123.84-25.6 126.17-23.25 128.49-20.9 128.49-16.15L128.49-16.15 128.49 0 121.19 0 121.19-15Q121.19-17.2 120.09-18.45 118.99-19.7 117.24-19.7L117.24-19.7Q116.49-19.7 115.82-19.48 115.14-19.25 114.34-18.68 113.54-18.1 113.04-16.73 112.54-15.35 112.54-13.4L112.54-13.4 112.54 0 105.24 0 105.24-35.35ZM140.09-15L148.89-15 148.89-15.6Q148.54-20.05 144.99-20.05L144.99-20.05Q143.24-20.05 141.89-18.78 140.54-17.5 140.09-15L140.09-15ZM154.14-7.55L154.14-7.55 154.14-1.45Q151.54 0.25 146.19 0.25L146.19 0.25Q139.94 0.25 136.46-3.38 132.99-7 132.99-12.7L132.99-12.7Q132.99-18.75 136.36-22.18 139.74-25.6 144.69-25.6L144.69-25.6Q149.79-25.6 152.74-22.63 155.69-19.65 155.69-13.75L155.69-13.75Q155.69-12.6 155.29-9.8L155.29-9.8 140.39-9.8Q141.14-7.7 142.99-6.55 144.84-5.4 147.44-5.4L147.44-5.4Q151.29-5.4 154.14-7.55ZM175.24-20L169.34-20 169.34-8.35Q169.34-7 170.11-6.3 170.89-5.6 172.14-5.6L172.14-5.6Q174.14-5.6 175.69-6.6L175.69-6.6 175.69-0.55Q173.84 0.25 170.69 0.25L170.69 0.25Q162.04 0.25 162.04-8.4L162.04-8.4 162.04-20 158.39-20 158.39-25.35 162.04-25.35 162.04-31.35 169.34-31.35 169.34-25.35 175.24-25.35 175.24-20ZM187.73 0L180.43 0 180.43-25.35 187.73-25.35 187.73 0ZM181.08-29.7Q179.83-30.95 179.83-32.7 179.83-34.45 181.08-35.7 182.33-36.95 184.08-36.95 185.83-36.95 187.08-35.7 188.33-34.45 188.33-32.7 188.33-30.95 187.08-29.7 185.83-28.45 184.08-28.45 182.33-28.45 181.08-29.7ZM200.13-12.6L200.13-12.6Q200.33-9.25 202.13-7.4 203.93-5.55 206.88-5.55L206.88-5.55Q210.03-5.55 212.93-7.3L212.93-7.3 212.93-1.2Q209.98 0.4 205.83 0.4L205.83 0.4Q200.13 0.4 196.43-3.23 192.73-6.85 192.73-12.6L192.73-12.6Q192.83-18.3 196.43-22.03 200.03-25.75 206.28-25.75L206.28-25.75Q210.13-25.75 212.93-24.3L212.93-24.3 212.93-18.05Q210.28-19.7 207.03-19.7L207.03-19.7Q203.98-19.7 202.08-17.88 200.18-16.05 200.13-12.6ZM246.28-20.1L259.23-20.1 259.23-3.1Q254.43 0.4 247.13 0.4L247.13 0.4Q239.03 0.4 233.98-4.25 228.93-8.9 228.93-16.9L228.93-16.9Q228.93-24.8 234.2-29.55 239.48-34.3 247.58-34.3L247.58-34.3Q253.28-34.3 257.43-32.2L257.43-32.2 257.43-24.5Q252.63-27.25 247.58-27.25L247.58-27.25Q242.83-27.25 240.03-24.43 237.23-21.6 237.23-16.9L237.23-16.9Q237.23-12.15 239.98-9.35 242.73-6.55 247.48-6.55L247.48-6.55Q249.63-6.55 251.73-7.2L251.73-7.2 251.73-13.55 246.28-13.55 246.28-20.1ZM277.77-8.55L277.77-10.4 275.42-10.4Q273.57-10.4 272.57-9.6 271.57-8.8 271.57-7.55L271.57-7.55Q271.57-5 274.52-5L274.52-5Q276.07-5 276.92-5.95 277.77-6.9 277.77-8.55L277.77-8.55ZM265.92-17.55L265.92-17.55 265.92-24.1Q268.92-25.8 274.57-25.8L274.57-25.8Q279.97-25.8 282.62-23.48 285.27-21.15 285.27-16.25L285.27-16.25 285.27 0 278.12 0 278.12-3.1Q276.52 0.15 271.82 0.15L271.82 0.15Q268.12 0.15 266.05-1.95 263.97-4.05 263.97-7.2L263.97-7.2Q263.97-10.85 266.65-12.88 269.32-14.9 274.57-14.9L274.57-14.9 277.77-14.9 277.77-16.65Q277.77-19.85 273.52-19.85L273.52-19.85Q269.42-19.85 265.92-17.55ZM298.57 0L291.27 0 291.27-25.35 298.57-25.35 298.57 0ZM291.92-29.7Q290.67-30.95 290.67-32.7 290.67-34.45 291.92-35.7 293.17-36.95 294.92-36.95 296.67-36.95 297.92-35.7 299.17-34.45 299.17-32.7 299.17-30.95 297.92-29.7 296.67-28.45 294.92-28.45 293.17-28.45 291.92-29.7ZM304.82-25.35L312.12-25.35 312.12-21.05Q313.07-23.15 315.04-24.38 317.02-25.6 319.77-25.6L319.77-25.6Q323.67-25.6 325.87-23.28 328.07-20.95 328.07-16.45L328.07-16.45 328.07 0 320.77 0 320.77-15.1Q320.77-17.35 319.72-18.53 318.67-19.7 316.77-19.7L316.77-19.7Q314.77-19.7 313.44-18.13 312.12-16.55 312.12-13.4L312.12-13.4 312.12 0 304.82 0 304.82-25.35ZM349.82-24.6L349.82-24.6 349.82-18.35Q347.17-19.9 343.62-19.9L343.62-19.9Q342.32-19.9 341.62-19.38 340.92-18.85 340.92-18.05L340.92-18.05Q340.92-17.6 341.17-17.2 341.42-16.8 341.99-16.45 342.57-16.1 343.09-15.83 343.62-15.55 344.54-15.15 345.47-14.75 346.02-14.45L346.02-14.45Q348.32-13.25 349.72-11.68 351.12-10.1 351.12-7.65L351.12-7.65Q351.12-3.9 348.42-1.85 345.72 0.2 341.27 0.2L341.27 0.2Q336.67 0.2 333.57-1.35L333.57-1.35 333.57-7.85Q337.02-5.45 340.87-5.45L340.87-5.45Q343.62-5.45 343.62-7.2L343.62-7.2Q343.62-7.65 343.37-8.05 343.12-8.45 342.52-8.8 341.92-9.15 341.42-9.38 340.92-9.6 339.97-10 339.02-10.4 338.52-10.65L338.52-10.65Q333.47-13.05 333.47-17.85L333.47-17.85Q333.47-21.55 336.29-23.6 339.12-25.65 343.32-25.65L343.32-25.65Q347.22-25.65 349.82-24.6Z" opacity="1" transform="matrix(1,0,0,1,0,0)" fill="#161616" class="undefined-text-0" data-fill-palette-color="primary" id="text-0"></path></svg></g></svg></g></svg></g></svg></g></svg></g></svg></g></svg></g></svg></g><defs><mask id="5193e5fd-00ec-422d-a6cd-7f09d5ef1a82"><rect width="640" height="400" fill="white"></rect><rect width="348.05760000000004" height="49.70884258318629" fill="black" x="145.97119999999998" y="175.14557870840684" id="transform-me" transform="matrix(1,0,0,1,-160,-20)"></rect></mask><mask id="b60d2bd5-1af9-4682-bee7-0884ca4e84b8"><rect width="640" height="400" fill="white"></rect><rect width="348.05760000000004" height="49.70884258318629" fill="black" x="145.97119999999998" y="175.14557870840684" id="transform-me" transform="matrix(1,0,0,1,-160,-20)"></rect></mask><mask id="2a36a450-e1e3-4e05-9df9-8ee246218490"><rect width="640" height="400" fill="white"></rect><rect width="348.05760000000004" height="49.70884258318629" fill="black" x="145.97119999999998" y="175.14557870840684" id="transform-me" transform="matrix(1,0,0,1,-160,-20)"></rect></mask><mask id="51b79cd7-34d4-48f7-ae7d-bb3db8c9be39"><rect width="640" height="400" fill="white"></rect><rect width="348.05760000000004" height="49.70884258318629" fill="black" x="145.97119999999998" y="175.14557870840684" id="transform-me" transform="matrix(1,0,0,1,-160,-20)"></rect></mask><mask id="778687ae-6cad-41cd-9109-0095db077939"><rect width="640" height="400" fill="white"></rect><rect width="348.05760000000004" height="49.70884258318629" fill="black" x="145.97119999999998" y="175.14557870840684" id="transform-me" transform="matrix(1,0,0,1,-160,-20)"></rect></mask><mask id="5d02f056-25c4-4ebb-af49-7667c92a5ae7"><rect width="640" height="400" fill="white"></rect><rect width="348.05760000000004" height="49.70884258318629" fill="black" x="145.97119999999998" y="175.14557870840684" id="transform-me" transform="matrix(1,0,0,1,-160,-20)"></rect></mask><mask id="94d93593-4472-4d9d-a72d-8e91434a9640"><rect width="640" height="400" fill="white"></rect><rect width="348.05760000000004" height="49.70884258318629" fill="black" x="145.97119999999998" y="175.14557870840684" id="transform-me" transform="matrix(1,0,0,1,-160,-20)"></rect></mask><mask id="668a5ebc-83c6-47c2-afe8-495053c27dce"><rect width="640" height="400" fill="white"></rect><rect width="348.05760000000004" height="49.70884258318629" fill="black" x="145.97119999999998" y="175.14557870840684" id="transform-me" transform="matrix(1,0,0,1,-160,-20)"></rect></mask><mask id="37017b2f-a681-4c68-82be-e21d6cbd6f93"><rect width="640" height="400" fill="white"></rect><rect width="348.05760000000004" height="49.70884258318629" fill="black" x="145.97119999999998" y="175.14557870840684" id="transform-me" transform="matrix(1,0,0,1,-160,-20)"></rect></mask><mask id="cdc0f70f-5417-4e94-8b33-55ea5c0ce0a4"><rect width="640" height="400" fill="white"></rect><rect width="348.05760000000004" height="49.70884258318629" fill="black" x="145.97119999999998" y="175.14557870840684" id="transform-me" transform="matrix(1,0,0,1,-160,-20)"></rect></mask><mask id="e104f8fc-feb0-4f19-9313-83947e5cfa6f"><rect width="640" height="400" fill="white"></rect><rect width="348.05760000000004" height="49.70884258318629" fill="black" x="145.97119999999998" y="175.14557870840684" id="transform-me" transform="matrix(1,0,0,1,-160,-20)"></rect></mask><mask id="8aacee85-1068-42bf-9e7a-4a5357aeb1f5"><rect width="640" height="400" fill="white"></rect><rect width="348.05760000000004" height="49.70884258318629" fill="black" x="145.97119999999998" y="175.14557870840684" id="transform-me" transform="matrix(1,0,0,1,-160,-20)"></rect></mask></defs></svg><rect width="320" height="360" fill="none" stroke="none" visibility="hidden"></rect></g></svg></g></svg>