<svg xmlns="http://www.w3.org/2000/svg" version="1.1" xmlns:xlink="http://www.w3.org/1999/xlink" xmlns:svgjs="http://svgjs.dev/svgjs" width="1000" height="623" viewBox="0 0 1000 623"><g transform="matrix(1,0,0,1,-0.6060606060606233,0.2522267206477409)"><svg viewBox="0 0 396 247" data-background-color="#d4bfbf" preserveAspectRatio="xMidYMid meet" height="623" width="1000" xmlns="http://www.w3.org/2000/svg" xmlns:xlink="http://www.w3.org/1999/xlink"><g id="tight-bounds" transform="matrix(1,0,0,1,0.2400000000000091,-0.09999999999999432)"><svg viewBox="0 0 395.52 247.2" height="247.2" width="395.52"><g><svg></svg></g><g><svg viewBox="0 0 395.52 247.2" height="247.2" width="395.52"><g transform="matrix(1,0,0,1,39.55199999999999,106.71694628571427)"><svg viewBox="0 0 316.416 33.76610742857143" height="33.76610742857143" width="316.416"><g><svg viewBox="0 0 316.416 33.76610742857143" height="33.76610742857143" width="316.416"><g><svg viewBox="0 0 316.416 33.76610742857143" height="33.76610742857143" width="316.416"><g><svg viewBox="0 0 316.416 33.76610742857143" height="33.76610742857143" width="316.416"><g><svg viewBox="0 0 316.416 33.76610742857143" height="33.76610742857143" width="316.416"><g><svg viewBox="0 0 316.416 33.76610742857143" height="33.76610742857143" width="316.416"><g transform="matrix(1,0,0,1,0,0)"><svg width="316.416" viewBox="1.149999976158142 -36.95000076293945 349.9700012207031 37.35000228881836" height="33.76610742857143" data-palette-color="#ff5000"><path d="M13.45-14.3L13.1-13.1 21.2-13.1 20.85-14.3Q19.4-19.2 18.48-22.65 17.55-26.1 17.35-27.1L17.35-27.1 17.15-28.1Q16.75-25.35 13.45-14.3L13.45-14.3ZM33.35 0L25.1 0 23.05-6.9 11.25-6.9 9.2 0 1.15 0 12.4-33.7 22.1-33.7 33.35 0ZM43.35-15L52.15-15 52.15-15.6Q51.8-20.05 48.25-20.05L48.25-20.05Q46.5-20.05 45.15-18.78 43.8-17.5 43.35-15L43.35-15ZM57.4-7.55L57.4-7.55 57.4-1.45Q54.8 0.25 49.45 0.25L49.45 0.25Q43.2 0.25 39.72-3.38 36.25-7 36.25-12.7L36.25-12.7Q36.25-18.75 39.62-22.18 43-25.6 47.95-25.6L47.95-25.6Q53.05-25.6 56-22.63 58.95-19.65 58.95-13.75L58.95-13.75Q58.95-12.6 58.55-9.8L58.55-9.8 43.65-9.8Q44.4-7.7 46.25-6.55 48.1-5.4 50.7-5.4L50.7-5.4Q54.55-5.4 57.4-7.55ZM80.15-24.6L80.15-24.6 80.15-18.35Q77.5-19.9 73.95-19.9L73.95-19.9Q72.65-19.9 71.95-19.38 71.25-18.85 71.25-18.05L71.25-18.05Q71.25-17.6 71.5-17.2 71.75-16.8 72.32-16.45 72.9-16.1 73.42-15.83 73.95-15.55 74.87-15.15 75.8-14.75 76.35-14.45L76.35-14.45Q78.65-13.25 80.05-11.68 81.45-10.1 81.45-7.65L81.45-7.65Q81.45-3.9 78.75-1.85 76.05 0.2 71.6 0.2L71.6 0.2Q67 0.2 63.9-1.35L63.9-1.35 63.9-7.85Q67.35-5.45 71.2-5.45L71.2-5.45Q73.95-5.45 73.95-7.2L73.95-7.2Q73.95-7.65 73.7-8.05 73.45-8.45 72.85-8.8 72.25-9.15 71.75-9.38 71.25-9.6 70.3-10 69.35-10.4 68.85-10.65L68.85-10.65Q63.8-13.05 63.8-17.85L63.8-17.85Q63.8-21.55 66.62-23.6 69.45-25.65 73.65-25.65L73.65-25.65Q77.55-25.65 80.15-24.6ZM100.29-20L94.39-20 94.39-8.35Q94.39-7 95.17-6.3 95.94-5.6 97.19-5.6L97.19-5.6Q99.19-5.6 100.74-6.6L100.74-6.6 100.74-0.55Q98.89 0.25 95.74 0.25L95.74 0.25Q87.09 0.25 87.09-8.4L87.09-8.4 87.09-20 83.44-20 83.44-25.35 87.09-25.35 87.09-31.35 94.39-31.35 94.39-25.35 100.29-25.35 100.29-20ZM105.24-35.35L112.54-35.35 112.54-21.05Q114.49-25.6 120.14-25.6L120.14-25.6Q123.84-25.6 126.17-23.25 128.49-20.9 128.49-16.15L128.49-16.15 128.49 0 121.19 0 121.19-15Q121.19-17.2 120.09-18.45 118.99-19.7 117.24-19.7L117.24-19.7Q116.49-19.7 115.82-19.48 115.14-19.25 114.34-18.68 113.54-18.1 113.04-16.73 112.54-15.35 112.54-13.4L112.54-13.4 112.54 0 105.24 0 105.24-35.35ZM140.09-15L148.89-15 148.89-15.6Q148.54-20.05 144.99-20.05L144.99-20.05Q143.24-20.05 141.89-18.78 140.54-17.5 140.09-15L140.09-15ZM154.14-7.55L154.14-7.55 154.14-1.45Q151.54 0.25 146.19 0.25L146.19 0.25Q139.94 0.25 136.46-3.38 132.99-7 132.99-12.7L132.99-12.7Q132.99-18.75 136.36-22.18 139.74-25.6 144.69-25.6L144.69-25.6Q149.79-25.6 152.74-22.63 155.69-19.65 155.69-13.75L155.69-13.75Q155.69-12.6 155.29-9.8L155.29-9.8 140.39-9.8Q141.14-7.7 142.99-6.55 144.84-5.4 147.44-5.4L147.44-5.4Q151.29-5.4 154.14-7.55ZM175.24-20L169.34-20 169.34-8.35Q169.34-7 170.11-6.3 170.89-5.6 172.14-5.6L172.14-5.6Q174.14-5.6 175.69-6.6L175.69-6.6 175.69-0.55Q173.84 0.25 170.69 0.25L170.69 0.25Q162.04 0.25 162.04-8.4L162.04-8.4 162.04-20 158.39-20 158.39-25.35 162.04-25.35 162.04-31.35 169.34-31.35 169.34-25.35 175.24-25.35 175.24-20ZM187.73 0L180.43 0 180.43-25.35 187.73-25.35 187.73 0ZM181.08-29.7Q179.83-30.95 179.83-32.7 179.83-34.45 181.08-35.7 182.33-36.95 184.08-36.95 185.83-36.95 187.08-35.7 188.33-34.45 188.33-32.7 188.33-30.95 187.08-29.7 185.83-28.45 184.08-28.45 182.33-28.45 181.08-29.7ZM200.13-12.6L200.13-12.6Q200.33-9.25 202.13-7.4 203.93-5.55 206.88-5.55L206.88-5.55Q210.03-5.55 212.93-7.3L212.93-7.3 212.93-1.2Q209.98 0.4 205.83 0.4L205.83 0.4Q200.13 0.4 196.43-3.23 192.73-6.85 192.73-12.6L192.73-12.6Q192.83-18.3 196.43-22.03 200.03-25.75 206.28-25.75L206.28-25.75Q210.13-25.75 212.93-24.3L212.93-24.3 212.93-18.05Q210.28-19.7 207.03-19.7L207.03-19.7Q203.98-19.7 202.08-17.88 200.18-16.05 200.13-12.6ZM246.28-20.1L259.23-20.1 259.23-3.1Q254.43 0.4 247.13 0.4L247.13 0.4Q239.03 0.4 233.98-4.25 228.93-8.9 228.93-16.9L228.93-16.9Q228.93-24.8 234.2-29.55 239.48-34.3 247.58-34.3L247.58-34.3Q253.28-34.3 257.43-32.2L257.43-32.2 257.43-24.5Q252.63-27.25 247.58-27.25L247.58-27.25Q242.83-27.25 240.03-24.43 237.23-21.6 237.23-16.9L237.23-16.9Q237.23-12.15 239.98-9.35 242.73-6.55 247.48-6.55L247.48-6.55Q249.63-6.55 251.73-7.2L251.73-7.2 251.73-13.55 246.28-13.55 246.28-20.1ZM277.77-8.55L277.77-10.4 275.42-10.4Q273.57-10.4 272.57-9.6 271.57-8.8 271.57-7.55L271.57-7.55Q271.57-5 274.52-5L274.52-5Q276.07-5 276.92-5.95 277.77-6.9 277.77-8.55L277.77-8.55ZM265.92-17.55L265.92-17.55 265.92-24.1Q268.92-25.8 274.57-25.8L274.57-25.8Q279.97-25.8 282.62-23.48 285.27-21.15 285.27-16.25L285.27-16.25 285.27 0 278.12 0 278.12-3.1Q276.52 0.15 271.82 0.15L271.82 0.15Q268.12 0.15 266.05-1.95 263.97-4.05 263.97-7.2L263.97-7.2Q263.97-10.85 266.65-12.88 269.32-14.9 274.57-14.9L274.57-14.9 277.77-14.9 277.77-16.65Q277.77-19.85 273.52-19.85L273.52-19.85Q269.42-19.85 265.92-17.55ZM298.57 0L291.27 0 291.27-25.35 298.57-25.35 298.57 0ZM291.92-29.7Q290.67-30.95 290.67-32.7 290.67-34.45 291.92-35.7 293.17-36.95 294.92-36.95 296.67-36.95 297.92-35.7 299.17-34.45 299.17-32.7 299.17-30.95 297.92-29.7 296.67-28.45 294.92-28.45 293.17-28.45 291.92-29.7ZM304.82-25.35L312.12-25.35 312.12-21.05Q313.07-23.15 315.04-24.38 317.02-25.6 319.77-25.6L319.77-25.6Q323.67-25.6 325.87-23.28 328.07-20.95 328.07-16.45L328.07-16.45 328.07 0 320.77 0 320.77-15.1Q320.77-17.35 319.72-18.53 318.67-19.7 316.77-19.7L316.77-19.7Q314.77-19.7 313.44-18.13 312.12-16.55 312.12-13.4L312.12-13.4 312.12 0 304.82 0 304.82-25.35ZM349.82-24.6L349.82-24.6 349.82-18.35Q347.17-19.9 343.62-19.9L343.62-19.9Q342.32-19.9 341.62-19.38 340.92-18.85 340.92-18.05L340.92-18.05Q340.92-17.6 341.17-17.2 341.42-16.8 341.99-16.45 342.57-16.1 343.09-15.83 343.62-15.55 344.54-15.15 345.47-14.75 346.02-14.45L346.02-14.45Q348.32-13.25 349.72-11.68 351.12-10.1 351.12-7.65L351.12-7.65Q351.12-3.9 348.42-1.85 345.72 0.2 341.27 0.2L341.27 0.2Q336.67 0.2 333.57-1.35L333.57-1.35 333.57-7.85Q337.02-5.45 340.87-5.45L340.87-5.45Q343.62-5.45 343.62-7.2L343.62-7.2Q343.62-7.65 343.37-8.05 343.12-8.45 342.52-8.8 341.92-9.15 341.42-9.38 340.92-9.6 339.97-10 339.02-10.4 338.52-10.65L338.52-10.65Q333.47-13.05 333.47-17.85L333.47-17.85Q333.47-21.55 336.29-23.6 339.12-25.65 343.32-25.65L343.32-25.65Q347.22-25.65 349.82-24.6Z" opacity="1" transform="matrix(1,0,0,1,0,0)" fill="#ff5000" class="undefined-text-0" data-fill-palette-color="primary" id="text-0"></path></svg></g></svg></g></svg></g></svg></g></svg></g></svg></g></svg></g><g mask="url(#edd261e9-018a-4ddc-bc5d-3f317b9904f1)"><g transform="matrix(2.6222636816833735, 0, 0, 2.6222636816833735, 91.92019456029786, 1)"><svg xmlns="http://www.w3.org/2000/svg" xmlns:xlink="http://www.w3.org/1999/xlink" version="1.1" x="0" y="0" viewBox="9.63800048828125 3.246999979019165 80.7239990234375 93.50699615478516" enable-background="new 0 0 100 100" xml:space="preserve" height="93.50699615478516" width="80.7239990234375" class="icon-none" data-fill-palette-color="accent" id="none"><g fill="#fffb00" data-fill-palette-color="accent"><g fill="#fffb00" data-fill-palette-color="accent"><polygon points="36.703,11.011 9.638,26.636 9.638,38.757 36.703,23.131 63.767,38.757 63.767,26.636   " fill="#fffb00" data-fill-palette-color="accent"></polygon></g><g fill="#fffb00" data-fill-palette-color="accent"><polygon points="63.298,89.092 36.233,73.467 36.233,61.348 63.298,76.973 90.362,61.348 90.362,73.467   " fill="#fffb00" data-fill-palette-color="accent"></polygon></g><g fill="#fffb00" data-fill-palette-color="accent"><polygon points="9.638,42.012 36.703,26.386 47.198,32.446 20.134,48.072 20.134,79.324 9.638,73.264   " fill="#fffb00" data-fill-palette-color="accent"></polygon></g><g fill="#fffb00" data-fill-palette-color="accent"><polygon points="77.083,18.872 50.018,3.247 39.522,9.307 66.586,24.932 66.586,56.184 77.083,50.124   " fill="#fffb00" data-fill-palette-color="accent"></polygon></g><g fill="#fffb00" data-fill-palette-color="accent"><polygon points="23.01,81.127 23.011,49.876 33.507,43.816 33.507,75.068 60.571,90.693 50.075,96.754   " fill="#fffb00" data-fill-palette-color="accent"></polygon></g><g fill="#fffb00" data-fill-palette-color="accent"><polygon points="90.362,58.092 90.362,26.84 79.866,20.78 79.866,52.031 52.802,67.658 63.298,73.719   " fill="#fffb00" data-fill-palette-color="accent"></polygon></g></g></svg></g></g></svg></g><defs><mask id="e21f29fe-b7f3-4751-99ee-ae21d7b637f8"><rect width="640" height="400" fill="white"></rect><rect width="348.05760000000004" height="49.70884258318629" fill="black" x="145.97119999999998" y="175.14557870840684" id="transform-me" transform="matrix(1,0,0,1,-122.24000000000001,-76.4)"></rect></mask><mask id="9ad669cd-0a09-4d1c-88d5-21865382a98c"><rect width="640" height="400" fill="white"></rect><rect width="348.05760000000004" height="49.70884258318629" fill="black" x="145.97119999999998" y="175.14557870840684" id="transform-me" transform="matrix(1,0,0,1,-122.24000000000001,-76.4)"></rect></mask><mask id="27303374-1137-4007-aa5b-6790013bbf5f"><rect width="640" height="400" fill="white"></rect><rect width="348.05760000000004" height="49.70884258318629" fill="black" x="145.97119999999998" y="175.14557870840684" id="transform-me" transform="matrix(1,0,0,1,-122.24000000000001,-76.4)"></rect></mask><mask id="c8dd1c04-fa38-464f-8957-b6e7a7300439"><rect width="640" height="400" fill="white"></rect><rect width="348.05760000000004" height="49.70884258318629" fill="black" x="145.97119999999998" y="175.14557870840684" id="transform-me" transform="matrix(1,0,0,1,-122.24000000000001,-76.4)"></rect></mask><mask id="c006655e-190d-45a3-b362-ebf705cd16df"><rect width="640" height="400" fill="white"></rect><rect width="348.05760000000004" height="49.70884258318629" fill="black" x="145.97119999999998" y="175.14557870840684" id="transform-me" transform="matrix(1,0,0,1,-122.24000000000001,-76.4)"></rect></mask><mask id="35330f4b-cec4-46e1-af89-48572a1eb79a"><rect width="640" height="400" fill="white"></rect><rect width="348.05760000000004" height="49.70884258318629" fill="black" x="145.97119999999998" y="175.14557870840684" id="transform-me" transform="matrix(1,0,0,1,-122.24000000000001,-76.4)"></rect></mask><mask id="a34d464b-6a72-45db-a9ac-67d6685ec7d3"><rect width="640" height="400" fill="white"></rect><rect width="348.05760000000004" height="49.70884258318629" fill="black" x="145.97119999999998" y="175.14557870840684" id="transform-me" transform="matrix(1,0,0,1,-122.24000000000001,-76.4)"></rect></mask><mask id="1decb055-fc7d-45b0-8ebb-e95577d0f208"><rect width="640" height="400" fill="white"></rect><rect width="348.05760000000004" height="49.70884258318629" fill="black" x="145.97119999999998" y="175.14557870840684" id="transform-me" transform="matrix(1,0,0,1,-122.24000000000001,-76.4)"></rect></mask><mask id="bab06c51-e3c0-4d8e-a649-e550571bc8bb"><rect width="640" height="400" fill="white"></rect><rect width="348.05760000000004" height="49.70884258318629" fill="black" x="145.97119999999998" y="175.14557870840684" id="transform-me" transform="matrix(1,0,0,1,-122.24000000000001,-76.4)"></rect></mask><mask id="1a2f62a9-e57e-4822-9ac4-37a4d14aeb36"><rect width="640" height="400" fill="white"></rect><rect width="348.05760000000004" height="49.70884258318629" fill="black" x="145.97119999999998" y="175.14557870840684" id="transform-me" transform="matrix(1,0,0,1,-122.24000000000001,-76.4)"></rect></mask><mask id="d7654f2a-fe8b-491f-9195-8910ca16747e"><rect width="640" height="400" fill="white"></rect><rect width="348.05760000000004" height="49.70884258318629" fill="black" x="145.97119999999998" y="175.14557870840684" id="transform-me" transform="matrix(1,0,0,1,-122.24000000000001,-76.4)"></rect></mask><mask id="e6625442-d4a7-4ba0-b4eb-2da2c95558ec"><rect width="640" height="400" fill="white"></rect><rect width="348.05760000000004" height="49.70884258318629" fill="black" x="145.97119999999998" y="175.14557870840684" id="transform-me" transform="matrix(1,0,0,1,-122.24000000000001,-76.4)"></rect></mask><mask id="5dba3962-071f-4700-920f-b81ba043cf0b"><rect width="640" height="400" fill="white"></rect><rect width="348.05760000000004" height="49.70884258318629" fill="black" x="145.97119999999998" y="175.14557870840684" id="transform-me" transform="matrix(1,0,0,1,-122.24000000000001,-76.4)"></rect></mask><mask id="2081815e-9021-4996-afb4-2ac57eaf5c74"><rect width="640" height="400" fill="white"></rect><rect width="348.05760000000004" height="49.70884258318629" fill="black" x="145.97119999999998" y="175.14557870840684" id="transform-me" transform="matrix(1,0,0,1,-122.24000000000001,-76.4)"></rect></mask><mask id="a35e237d-3876-474b-88f3-5ad0025a081a"><rect width="640" height="400" fill="white"></rect><rect width="348.05760000000004" height="49.70884258318629" fill="black" x="145.97119999999998" y="175.14557870840684" id="transform-me" transform="matrix(1,0,0,1,-122.24000000000001,-76.4)"></rect></mask><mask id="cc2f9423-2cf8-4d12-b559-b1fa16ff4945"><rect width="640" height="400" fill="white"></rect><rect width="348.05760000000004" height="49.70884258318629" fill="black" x="145.97119999999998" y="175.14557870840684" id="transform-me" transform="matrix(1,0,0,1,-122.24000000000001,-76.4)"></rect></mask><mask id="0891d90c-11ba-4954-99e9-b750a28493a0"><rect width="640" height="400" fill="white"></rect><rect width="348.05760000000004" height="49.70884258318629" fill="black" x="145.97119999999998" y="175.14557870840684" id="transform-me" transform="matrix(1,0,0,1,-122.24000000000001,-76.4)"></rect></mask><mask id="d25c1cc6-b362-45e4-ac6c-c04440d4e75f"><rect width="640" height="400" fill="white"></rect><rect width="348.05760000000004" height="49.70884258318629" fill="black" x="145.97119999999998" y="175.14557870840684" id="transform-me" transform="matrix(1,0,0,1,-122.24000000000001,-76.4)"></rect></mask><mask id="80a29c2f-1d64-40df-9517-a9943a1f0311"><rect width="640" height="400" fill="white"></rect><rect width="348.05760000000004" height="49.70884258318629" fill="black" x="145.97119999999998" y="175.14557870840684" id="transform-me" transform="matrix(1,0,0,1,-122.24000000000001,-76.4)"></rect></mask><mask id="835b6aa2-e0d6-440d-9c6c-66c7874d6b99"><rect width="640" height="400" fill="white"></rect><rect width="348.05760000000004" height="49.70884258318629" fill="black" x="145.97119999999998" y="175.14557870840684" id="transform-me" transform="matrix(1,0,0,1,-122.24000000000001,-76.4)"></rect></mask><mask id="7ee51ce4-771d-4541-8a94-7b46bdbaa9d5"><rect width="640" height="400" fill="white"></rect><rect width="348.05760000000004" height="49.70884258318629" fill="black" x="145.97119999999998" y="175.14557870840684" id="transform-me" transform="matrix(1,0,0,1,-122.24000000000001,-76.4)"></rect></mask><mask id="5620e4fc-ba9e-4e4b-8044-5da160270f3a"><rect width="640" height="400" fill="white"></rect><rect width="348.05760000000004" height="49.70884258318629" fill="black" x="145.97119999999998" y="175.14557870840684" id="transform-me" transform="matrix(1,0,0,1,-122.24000000000001,-76.4)"></rect></mask><mask id="d9682fcf-aa6e-40c1-b57e-9b17432c230b"><rect width="640" height="400" fill="white"></rect><rect width="348.05760000000004" height="49.70884258318629" fill="black" x="145.97119999999998" y="175.14557870840684" id="transform-me" transform="matrix(1,0,0,1,-122.24000000000001,-76.4)"></rect></mask><mask id="9d0d8b38-8665-4861-8486-fa31a1b3481c"><rect width="640" height="400" fill="white"></rect><rect width="348.05760000000004" height="49.70884258318629" fill="black" x="145.97119999999998" y="175.14557870840684" id="transform-me" transform="matrix(1,0,0,1,-122.24000000000001,-76.4)"></rect></mask><mask id="8fa94df1-8aac-4f0c-9625-11d17717e09c"><rect width="640" height="400" fill="white"></rect><rect width="348.05760000000004" height="49.70884258318629" fill="black" x="145.97119999999998" y="175.14557870840684" id="transform-me" transform="matrix(1,0,0,1,-122.24000000000001,-76.4)"></rect></mask><mask id="3c8359a8-d2b1-4130-920e-6a253885bf9b"><rect width="640" height="400" fill="white"></rect><rect width="348.05760000000004" height="49.70884258318629" fill="black" x="145.97119999999998" y="175.14557870840684" id="transform-me" transform="matrix(1,0,0,1,-122.24000000000001,-76.4)"></rect></mask><mask id="67ee2dc2-0cb8-4296-9c93-cdf13d70ce16"><rect width="640" height="400" fill="white"></rect><rect width="348.05760000000004" height="49.70884258318629" fill="black" x="145.97119999999998" y="175.14557870840684" id="transform-me" transform="matrix(1,0,0,1,-122.24000000000001,-76.4)"></rect></mask><mask id="af12c220-dea7-4a6b-b101-be0a9cea589c"><rect width="640" height="400" fill="white"></rect><rect width="348.05760000000004" height="49.70884258318629" fill="black" x="145.97119999999998" y="175.14557870840684" id="transform-me" transform="matrix(1,0,0,1,-122.24000000000001,-76.4)"></rect></mask><mask id="8bc78713-7091-4585-9405-266ca88e74f2"><rect width="640" height="400" fill="white"></rect><rect width="348.05760000000004" height="49.70884258318629" fill="black" x="145.97119999999998" y="175.14557870840684" id="transform-me" transform="matrix(1,0,0,1,-122.24000000000001,-76.4)"></rect></mask><mask id="55bd56ef-6a06-4a22-b002-0f10b392c294"><rect width="640" height="400" fill="white"></rect><rect width="348.05760000000004" height="49.70884258318629" fill="black" x="145.97119999999998" y="175.14557870840684" id="transform-me" transform="matrix(1,0,0,1,-122.24000000000001,-76.4)"></rect></mask><mask id="a7b1e3d4-a102-4519-be0b-ac05fc16bd35"><rect width="640" height="400" fill="white"></rect><rect width="348.05760000000004" height="49.70884258318629" fill="black" x="145.97119999999998" y="175.14557870840684" id="transform-me" transform="matrix(1,0,0,1,-122.24000000000001,-76.4)"></rect></mask><mask id="d3f43139-6364-4729-a9a8-6dcde39fc31a"><rect width="640" height="400" fill="white"></rect><rect width="348.05760000000004" height="49.70884258318629" fill="black" x="145.97119999999998" y="175.14557870840684" id="transform-me" transform="matrix(1,0,0,1,-122.24000000000001,-76.4)"></rect></mask><mask id="b20921b7-e780-4ca6-9a22-2afcc1a884e3"><rect width="640" height="400" fill="white"></rect><rect width="348.05760000000004" height="49.70884258318629" fill="black" x="145.97119999999998" y="175.14557870840684" id="transform-me" transform="matrix(1,0,0,1,-122.24000000000001,-76.4)"></rect></mask><mask id="38808672-f0bf-44cd-a123-158133068826"><rect width="640" height="400" fill="white"></rect><rect width="348.05760000000004" height="49.70884258318629" fill="black" x="145.97119999999998" y="175.14557870840684" id="transform-me" transform="matrix(1,0,0,1,-122.24000000000001,-76.4)"></rect></mask><mask id="176ec888-09d0-4cd1-8513-7b50f0651b1e"><rect width="640" height="400" fill="white"></rect><rect width="348.05760000000004" height="49.70884258318629" fill="black" x="145.97119999999998" y="175.14557870840684" id="transform-me" transform="matrix(1,0,0,1,-122.24000000000001,-76.4)"></rect></mask><mask id="c68dd3cf-1fc3-4df9-9c12-4b12953041e8"><rect width="640" height="400" fill="white"></rect><rect width="348.05760000000004" height="49.70884258318629" fill="black" x="145.97119999999998" y="175.14557870840684" id="transform-me" transform="matrix(1,0,0,1,-122.24000000000001,-76.4)"></rect></mask><mask id="fa0bf501-01c6-4d6c-9550-dc8d303b5b71"><rect width="640" height="400" fill="white"></rect><rect width="348.05760000000004" height="49.70884258318629" fill="black" x="145.97119999999998" y="175.14557870840684" id="transform-me" transform="matrix(1,0,0,1,-122.24000000000001,-76.4)"></rect></mask><mask id="f849cd53-e39d-4103-a417-3cdc6fc6cea0"><rect width="640" height="400" fill="white"></rect><rect width="348.05760000000004" height="49.70884258318629" fill="black" x="145.97119999999998" y="175.14557870840684" id="transform-me" transform="matrix(1,0,0,1,-122.24000000000001,-76.4)"></rect></mask><mask id="723fcc37-31f6-43cf-968a-ee0dc387eeac"><rect width="640" height="400" fill="white"></rect><rect width="348.05760000000004" height="49.70884258318629" fill="black" x="145.97119999999998" y="175.14557870840684" id="transform-me" transform="matrix(1,0,0,1,-122.24000000000001,-76.4)"></rect></mask><mask id="045389ec-6381-4442-9fd9-37c6dbea4a3f"><rect width="640" height="400" fill="white"></rect><rect width="348.05760000000004" height="49.70884258318629" fill="black" x="145.97119999999998" y="175.14557870840684" id="transform-me" transform="matrix(1,0,0,1,-122.24000000000001,-76.4)"></rect></mask><mask id="4325ba59-b2df-494c-bb2a-0d9e55128d7e"><rect width="640" height="400" fill="white"></rect><rect width="348.05760000000004" height="49.70884258318629" fill="black" x="145.97119999999998" y="175.14557870840684" id="transform-me" transform="matrix(1,0,0,1,-122.24000000000001,-76.4)"></rect></mask><mask id="18704dda-ed8c-47ef-ab9f-851033e96d30"><rect width="640" height="400" fill="white"></rect><rect width="348.05760000000004" height="49.70884258318629" fill="black" x="145.97119999999998" y="175.14557870840684" id="transform-me" transform="matrix(1,0,0,1,-122.24000000000001,-76.4)"></rect></mask><mask id="2577d6f1-6352-452f-9c65-f52bbe25133a"><rect width="640" height="400" fill="white"></rect><rect width="348.05760000000004" height="49.70884258318629" fill="black" x="145.97119999999998" y="175.14557870840684" id="transform-me" transform="matrix(1,0,0,1,-122.24000000000001,-76.4)"></rect></mask><mask id="0b80560f-2487-4574-9d26-37d6829ae1b9"><rect width="640" height="400" fill="white"></rect><rect width="348.05760000000004" height="49.70884258318629" fill="black" x="145.97119999999998" y="175.14557870840684" id="transform-me" transform="matrix(1,0,0,1,-122.24000000000001,-76.4)"></rect></mask><mask id="3dd6ca8c-f704-4ee6-a174-7ebb4e30af58"><rect width="640" height="400" fill="white"></rect><rect width="348.05760000000004" height="49.70884258318629" fill="black" x="145.97119999999998" y="175.14557870840684" id="transform-me" transform="matrix(1,0,0,1,-122.24000000000001,-76.4)"></rect></mask><mask id="593a558e-e915-4295-bf32-53c600c123b6"><rect width="640" height="400" fill="white"></rect><rect width="348.05760000000004" height="49.70884258318629" fill="black" x="145.97119999999998" y="175.14557870840684" id="transform-me" transform="matrix(1,0,0,1,-122.24000000000001,-76.4)"></rect></mask><mask id="4ecf296e-84a7-4af7-8259-ebe581c672e6"><rect width="640" height="400" fill="white"></rect><rect width="348.05760000000004" height="49.70884258318629" fill="black" x="145.97119999999998" y="175.14557870840684" id="transform-me" transform="matrix(1,0,0,1,-122.24000000000001,-76.4)"></rect></mask><mask id="7c4fd16d-1696-4196-a9c4-10e15d52d4f3"><rect width="640" height="400" fill="white"></rect><rect width="348.05760000000004" height="49.70884258318629" fill="black" x="145.97119999999998" y="175.14557870840684" id="transform-me" transform="matrix(1,0,0,1,-122.24000000000001,-76.4)"></rect></mask><mask id="6f79b1c8-ac3f-4759-8b71-afa6bbad364b"><rect width="640" height="400" fill="white"></rect><rect width="348.05760000000004" height="49.70884258318629" fill="black" x="145.97119999999998" y="175.14557870840684" id="transform-me" transform="matrix(1,0,0,1,-122.24000000000001,-76.4)"></rect></mask><mask id="a8699d4d-0b69-40f7-a1c7-30572ccd7252"><rect width="640" height="400" fill="white"></rect><rect width="348.05760000000004" height="49.70884258318629" fill="black" x="145.97119999999998" y="175.14557870840684" id="transform-me" transform="matrix(1,0,0,1,-122.24000000000001,-76.4)"></rect></mask><mask id="1e5b9756-81ac-4eff-8384-307c1f5b6914"><rect width="640" height="400" fill="white"></rect><rect width="348.05760000000004" height="49.70884258318629" fill="black" x="145.97119999999998" y="175.14557870840684" id="transform-me" transform="matrix(1,0,0,1,-122.24000000000001,-76.4)"></rect></mask><mask id="7403cd91-2501-4ac2-9a38-40764a0a332b"><rect width="640" height="400" fill="white"></rect><rect width="348.05760000000004" height="49.70884258318629" fill="black" x="145.97119999999998" y="175.14557870840684" id="transform-me" transform="matrix(1,0,0,1,-122.24000000000001,-76.4)"></rect></mask><mask id="6ff6c900-2f4b-44f9-b135-0316211dcc97"><rect width="640" height="400" fill="white"></rect><rect width="348.05760000000004" height="49.70884258318629" fill="black" x="145.97119999999998" y="175.14557870840684" id="transform-me" transform="matrix(1,0,0,1,-122.24000000000001,-76.4)"></rect></mask><mask id="18195459-15b9-4df2-b06a-4e98dd695673"><rect width="640" height="400" fill="white"></rect><rect width="348.05760000000004" height="49.70884258318629" fill="black" x="145.97119999999998" y="175.14557870840684" id="transform-me" transform="matrix(1,0,0,1,-122.24000000000001,-76.4)"></rect></mask><mask id="ff38d575-88a7-4275-aab0-c1276ffd41e6"><rect width="640" height="400" fill="white"></rect><rect width="348.05760000000004" height="49.70884258318629" fill="black" x="145.97119999999998" y="175.14557870840684" id="transform-me" transform="matrix(1,0,0,1,-122.24000000000001,-76.4)"></rect></mask><mask id="c5c52044-bcbf-4cd3-8642-920ba8ba4aaa"><rect width="640" height="400" fill="white"></rect><rect width="348.05760000000004" height="49.70884258318629" fill="black" x="145.97119999999998" y="175.14557870840684" id="transform-me" transform="matrix(1,0,0,1,-122.24000000000001,-76.4)"></rect></mask><mask id="4dfd7992-897c-4790-a840-cec3952303ee"><rect width="640" height="400" fill="white"></rect><rect width="348.05760000000004" height="49.70884258318629" fill="black" x="145.97119999999998" y="175.14557870840684" id="transform-me" transform="matrix(1,0,0,1,-122.24000000000001,-76.4)"></rect></mask><mask id="a277b47e-f56a-4395-9f44-5a0db65df97d"><rect width="640" height="400" fill="white"></rect><rect width="348.05760000000004" height="49.70884258318629" fill="black" x="145.97119999999998" y="175.14557870840684" id="transform-me" transform="matrix(1,0,0,1,-122.24000000000001,-76.4)"></rect></mask><mask id="bd16b3b3-0c9f-4429-a627-ab69678618e6"><rect width="640" height="400" fill="white"></rect><rect width="348.05760000000004" height="49.70884258318629" fill="black" x="145.97119999999998" y="175.14557870840684" id="transform-me" transform="matrix(1,0,0,1,-122.24000000000001,-76.4)"></rect></mask><mask id="947eb5e0-c491-4a9c-b8cd-191aec23158f"><rect width="640" height="400" fill="white"></rect><rect width="348.05760000000004" height="49.70884258318629" fill="black" x="145.97119999999998" y="175.14557870840684" id="transform-me" transform="matrix(1,0,0,1,-122.24000000000001,-76.4)"></rect></mask><mask id="2996129d-f71d-4058-8beb-36796ebb5e22"><rect width="640" height="400" fill="white"></rect><rect width="348.05760000000004" height="49.70884258318629" fill="black" x="145.97119999999998" y="175.14557870840684" id="transform-me" transform="matrix(1,0,0,1,-122.24000000000001,-76.4)"></rect></mask><mask id="8a4e503c-c201-442e-889d-6b75708a6a2e"><rect width="640" height="400" fill="white"></rect><rect width="348.05760000000004" height="49.70884258318629" fill="black" x="145.97119999999998" y="175.14557870840684" id="transform-me" transform="matrix(1,0,0,1,-122.24000000000001,-76.4)"></rect></mask><mask id="75a9873d-0f93-4fb6-ace5-784e73539506"><rect width="640" height="400" fill="white"></rect><rect width="348.05760000000004" height="49.70884258318629" fill="black" x="145.97119999999998" y="175.14557870840684" id="transform-me" transform="matrix(1,0,0,1,-122.24000000000001,-76.4)"></rect></mask><mask id="e82936b0-a0e9-4363-919c-7867daef1187"><rect width="640" height="400" fill="white"></rect><rect width="348.05760000000004" height="49.70884258318629" fill="black" x="145.97119999999998" y="175.14557870840684" id="transform-me" transform="matrix(1,0,0,1,-122.24000000000001,-76.4)"></rect></mask><mask id="0afed8e4-10e3-4417-abfe-4eaebdeba72a"><rect width="640" height="400" fill="white"></rect><rect width="348.05760000000004" height="49.70884258318629" fill="black" x="145.97119999999998" y="175.14557870840684" id="transform-me" transform="matrix(1,0,0,1,-122.24000000000001,-76.4)"></rect></mask><mask id="766a9645-f7a2-4654-92bc-4929626cdd07"><rect width="640" height="400" fill="white"></rect><rect width="348.05760000000004" height="49.70884258318629" fill="black" x="145.97119999999998" y="175.14557870840684" id="transform-me" transform="matrix(1,0,0,1,-122.24000000000001,-76.4)"></rect></mask><mask id="dcc321f9-be33-443b-aab2-41c51576358a"><rect width="640" height="400" fill="white"></rect><rect width="348.05760000000004" height="49.70884258318629" fill="black" x="145.97119999999998" y="175.14557870840684" id="transform-me" transform="matrix(1,0,0,1,-122.24000000000001,-76.4)"></rect></mask><mask id="61063f5b-9276-4c17-a949-f31c62df05e0"><rect width="640" height="400" fill="white"></rect><rect width="348.05760000000004" height="49.70884258318629" fill="black" x="145.97119999999998" y="175.14557870840684" id="transform-me" transform="matrix(1,0,0,1,-122.24000000000001,-76.4)"></rect></mask><mask id="78031903-4eac-4377-a46b-9b97aab90019"><rect width="640" height="400" fill="white"></rect><rect width="348.05760000000004" height="49.70884258318629" fill="black" x="145.97119999999998" y="175.14557870840684" id="transform-me" transform="matrix(1,0,0,1,-122.24000000000001,-76.4)"></rect></mask><mask id="f3296482-dc9d-4ef4-8a7b-a7b8eb00146f"><rect width="640" height="400" fill="white"></rect><rect width="348.05760000000004" height="49.70884258318629" fill="black" x="145.97119999999998" y="175.14557870840684" id="transform-me" transform="matrix(1,0,0,1,-122.24000000000001,-76.4)"></rect></mask><mask id="06b962c5-d97d-424b-bfc4-c9ef36560237"><rect width="640" height="400" fill="white"></rect><rect width="348.05760000000004" height="49.70884258318629" fill="black" x="145.97119999999998" y="175.14557870840684" id="transform-me" transform="matrix(1,0,0,1,-122.24000000000001,-76.4)"></rect></mask><mask id="1e9797ca-60ba-452c-b237-e8c10bfa7802"><rect width="640" height="400" fill="white"></rect><rect width="348.05760000000004" height="49.70884258318629" fill="black" x="145.97119999999998" y="175.14557870840684" id="transform-me" transform="matrix(1,0,0,1,-122.24000000000001,-76.4)"></rect></mask><mask id="4b2dddb9-2663-44d1-8889-54bc5821cd51"><rect width="640" height="400" fill="white"></rect><rect width="348.05760000000004" height="49.70884258318629" fill="black" x="145.97119999999998" y="175.14557870840684" id="transform-me" transform="matrix(1,0,0,1,-122.24000000000001,-76.4)"></rect></mask><mask id="ba43ee27-8db6-4d19-b130-12171f110995"><rect width="640" height="400" fill="white"></rect><rect width="348.05760000000004" height="49.70884258318629" fill="black" x="145.97119999999998" y="175.14557870840684" id="transform-me" transform="matrix(1,0,0,1,-122.24000000000001,-76.4)"></rect></mask><mask id="2e401505-5412-47e6-8018-363db59cf840"><rect width="640" height="400" fill="white"></rect><rect width="348.05760000000004" height="49.70884258318629" fill="black" x="145.97119999999998" y="175.14557870840684" id="transform-me" transform="matrix(1,0,0,1,-122.24000000000001,-76.4)"></rect></mask><mask id="b09c0837-1e6a-411b-a22c-264440def0d6"><rect width="640" height="400" fill="white"></rect><rect width="348.05760000000004" height="49.70884258318629" fill="black" x="145.97119999999998" y="175.14557870840684" id="transform-me" transform="matrix(1,0,0,1,-122.24000000000001,-76.4)"></rect></mask><mask id="d5d66e2d-9b3b-4668-abb5-f38b97e2e988"><rect width="640" height="400" fill="white"></rect><rect width="348.05760000000004" height="49.70884258318629" fill="black" x="145.97119999999998" y="175.14557870840684" id="transform-me" transform="matrix(1,0,0,1,-122.24000000000001,-76.4)"></rect></mask><mask id="2d3e2cc0-263f-4426-ae0e-8ebe4026c2cc"><rect width="640" height="400" fill="white"></rect><rect width="348.05760000000004" height="49.70884258318629" fill="black" x="145.97119999999998" y="175.14557870840684" id="transform-me" transform="matrix(1,0,0,1,-122.24000000000001,-76.4)"></rect></mask><mask id="708274f0-f943-49b6-8d67-e2cab63ee3bb"><rect width="640" height="400" fill="white"></rect><rect width="348.05760000000004" height="49.70884258318629" fill="black" x="145.97119999999998" y="175.14557870840684" id="transform-me" transform="matrix(1,0,0,1,-122.24000000000001,-76.4)"></rect></mask><mask id="e5e5f608-f36b-430e-98de-d16faa25e4de"><rect width="640" height="400" fill="white"></rect><rect width="348.05760000000004" height="49.70884258318629" fill="black" x="145.97119999999998" y="175.14557870840684" id="transform-me" transform="matrix(1,0,0,1,-122.24000000000001,-76.4)"></rect></mask><mask id="4812c942-a5a1-40eb-8260-9e9dee7c6daf"><rect width="640" height="400" fill="white"></rect><rect width="348.05760000000004" height="49.70884258318629" fill="black" x="145.97119999999998" y="175.14557870840684" id="transform-me" transform="matrix(1,0,0,1,-122.24000000000001,-76.4)"></rect></mask><mask id="06e25357-0384-40d4-9cba-fb39c8e65463"><rect width="640" height="400" fill="white"></rect><rect width="348.05760000000004" height="49.70884258318629" fill="black" x="145.97119999999998" y="175.14557870840684" id="transform-me" transform="matrix(1,0,0,1,-122.24000000000001,-76.4)"></rect></mask><mask id="dc54e6ca-b48d-4ec5-8a47-1373e941deec"><rect width="640" height="400" fill="white"></rect><rect width="348.05760000000004" height="49.70884258318629" fill="black" x="145.97119999999998" y="175.14557870840684" id="transform-me" transform="matrix(1,0,0,1,-122.24000000000001,-76.4)"></rect></mask><mask id="c6218380-408e-41af-ae00-b210ff480109"><rect width="640" height="400" fill="white"></rect><rect width="348.05760000000004" height="49.70884258318629" fill="black" x="145.97119999999998" y="175.14557870840684" id="transform-me" transform="matrix(1,0,0,1,-122.24000000000001,-76.4)"></rect></mask><mask id="5bf944b0-ad63-4102-b161-1be6f7a60343"><rect width="640" height="400" fill="white"></rect><rect width="348.05760000000004" height="49.70884258318629" fill="black" x="145.97119999999998" y="175.14557870840684" id="transform-me" transform="matrix(1,0,0,1,-122.24000000000001,-76.4)"></rect></mask><mask id="6cfdfd32-d952-468a-bd8f-4175e9c6c2f3"><rect width="640" height="400" fill="white"></rect><rect width="348.05760000000004" height="49.70884258318629" fill="black" x="145.97119999999998" y="175.14557870840684" id="transform-me" transform="matrix(1,0,0,1,-122.24000000000001,-76.4)"></rect></mask><mask id="3a0dc30c-dee8-4d9c-bfc6-eb6d9ff63741"><rect width="640" height="400" fill="white"></rect><rect width="348.05760000000004" height="49.70884258318629" fill="black" x="145.97119999999998" y="175.14557870840684" id="transform-me" transform="matrix(1,0,0,1,-122.24000000000001,-76.4)"></rect></mask><mask id="5ffbda53-d938-4e5e-a5e2-bb4f378d49ea"><rect width="640" height="400" fill="white"></rect><rect width="348.05760000000004" height="49.70884258318629" fill="black" x="145.97119999999998" y="175.14557870840684" id="transform-me" transform="matrix(1,0,0,1,-122.24000000000001,-76.4)"></rect></mask><mask id="c691971c-17cc-400e-8d0c-1476915f5db5"><rect width="640" height="400" fill="white"></rect><rect width="348.05760000000004" height="49.70884258318629" fill="black" x="145.97119999999998" y="175.14557870840684" id="transform-me" transform="matrix(1,0,0,1,-122.24000000000001,-76.4)"></rect></mask><mask id="6d7eef1b-c180-4dcd-8e8a-5979cc1a81d7"><rect width="640" height="400" fill="white"></rect><rect width="348.05760000000004" height="49.70884258318629" fill="black" x="145.97119999999998" y="175.14557870840684" id="transform-me" transform="matrix(1,0,0,1,-122.24000000000001,-76.4)"></rect></mask><mask id="18b16dd8-88dc-45dd-8c9f-67bbd0e8e0aa"><rect width="640" height="400" fill="white"></rect><rect width="348.05760000000004" height="49.70884258318629" fill="black" x="145.97119999999998" y="175.14557870840684" id="transform-me" transform="matrix(1,0,0,1,-122.24000000000001,-76.4)"></rect></mask><mask id="2f6b9c67-2b06-4ddc-8470-f9e00c916eb0"><rect width="640" height="400" fill="white"></rect><rect width="348.05760000000004" height="49.70884258318629" fill="black" x="145.97119999999998" y="175.14557870840684" id="transform-me" transform="matrix(1,0,0,1,-122.24000000000001,-76.4)"></rect></mask><mask id="6ac26b38-c4af-4d2d-8729-a1d1bfb75daf"><rect width="640" height="400" fill="white"></rect><rect width="348.05760000000004" height="49.70884258318629" fill="black" x="145.97119999999998" y="175.14557870840684" id="transform-me" transform="matrix(1,0,0,1,-122.24000000000001,-76.4)"></rect></mask><mask id="6abc08d7-92cf-4329-952c-eebf750396f9"><rect width="640" height="400" fill="white"></rect><rect width="348.05760000000004" height="49.70884258318629" fill="black" x="145.97119999999998" y="175.14557870840684" id="transform-me" transform="matrix(1,0,0,1,-122.24000000000001,-76.4)"></rect></mask><mask id="cd7a940f-6068-4707-abca-ae1f044a6f9f"><rect width="640" height="400" fill="white"></rect><rect width="348.05760000000004" height="49.70884258318629" fill="black" x="145.97119999999998" y="175.14557870840684" id="transform-me" transform="matrix(1,0,0,1,-122.24000000000001,-76.4)"></rect></mask><mask id="04987690-e97c-4de7-887a-f13777e337c7"><rect width="640" height="400" fill="white"></rect><rect width="348.05760000000004" height="49.70884258318629" fill="black" x="145.97119999999998" y="175.14557870840684" id="transform-me" transform="matrix(1,0,0,1,-122.24000000000001,-76.4)"></rect></mask><mask id="edd261e9-018a-4ddc-bc5d-3f317b9904f1"><rect width="640" height="400" fill="white"></rect><rect width="348.05760000000004" height="49.70884258318629" fill="black" x="145.97119999999998" y="175.14557870840684" id="transform-me" transform="matrix(1,0,0,1,-122.24000000000001,-76.4)"></rect></mask></defs></svg><rect width="395.52" height="247.2" fill="none" stroke="none" visibility="hidden"></rect></g></svg></g></svg>